<svg xmlns="http://www.w3.org/2000/svg" width="1200" height="630" viewBox="0 0 1200 630">
  <defs>
    <linearGradient id="bg" x1="0" y1="0" x2="1" y2="1">
      <stop offset="0" stop-color="#0f172a"/>
      <stop offset="0.55" stop-color="#1e40af"/>
      <stop offset="1" stop-color="#2563eb"/>
    </linearGradient>
    <linearGradient id="accent" x1="0" y1="0" x2="1" y2="1">
      <stop offset="0" stop-color="#38bdf8"/>
      <stop offset="1" stop-color="#a78bfa"/>
    </linearGradient>
    <filter id="shadow" x="-20%" y="-20%" width="140%" height="140%">
      <feDropShadow dx="0" dy="16" stdDeviation="24" flood-color="#000000" flood-opacity="0.35"/>
    </filter>
  </defs>

  <rect width="1200" height="630" fill="url(#bg)"/>

  <!-- Decorative blobs -->
  <circle cx="220" cy="320" r="170" fill="rgba(255,255,255,0.10)"/>
  <circle cx="980" cy="120" r="120" fill="rgba(255,255,255,0.06)"/>

  <!-- Icon (trade + globe) -->
  <g transform="translate(140 170)" filter="url(#shadow)">
    <rect x="0" y="0" width="240" height="240" rx="56" fill="rgba(255,255,255,0.14)" stroke="rgba(255,255,255,0.20)"/>
    <circle cx="120" cy="112" r="64" fill="rgba(255,255,255,0.12)" stroke="rgba(255,255,255,0.22)" stroke-width="2"/>
    <path d="M56 112h128" stroke="rgba(255,255,255,0.40)" stroke-width="3" stroke-linecap="round"/>
    <path d="M120 48c-24 28-38 54-38 64s14 36 38 64" stroke="rgba(255,255,255,0.30)" stroke-width="3" fill="none" stroke-linecap="round"/>
    <path d="M120 48c24 28 38 54 38 64s-14 36-38 64" stroke="rgba(255,255,255,0.30)" stroke-width="3" fill="none" stroke-linecap="round"/>
    <path d="M60 188c18 20 38 30 60 30s42-10 60-30" fill="none" stroke="rgba(255,255,255,0.88)" stroke-width="8" stroke-linecap="round"/>
    <path d="M170 176l18 20-26 6" fill="none" stroke="rgba(255,255,255,0.88)" stroke-width="8" stroke-linecap="round" stroke-linejoin="round"/>
    <path d="M70 66c18-16 34-24 50-24s32 8 50 24" fill="none" stroke="url(#accent)" stroke-width="8" stroke-linecap="round"/>
    <path d="M72 78l-18-20 26-6" fill="none" stroke="url(#accent)" stroke-width="8" stroke-linecap="round" stroke-linejoin="round"/>
  </g>

  <!-- Text -->
  <text x="430" y="290" font-family="system-ui, -apple-system, Segoe UI, sans-serif" font-size="64" font-weight="900" fill="rgba(255,255,255,0.95)">군산 천우무역</text>
  <text x="430" y="355" font-family="system-ui, -apple-system, Segoe UI, sans-serif" font-size="30" font-weight="600" fill="rgba(255,255,255,0.85)">글로벌 무역의 신뢰할 수 있는 파트너</text>
  <text x="430" y="415" font-family="system-ui, -apple-system, Segoe UI, sans-serif" font-size="24" font-weight="500" fill="rgba(255,255,255,0.75)">건축자재 · 인테리어자재 · 농수산물 · 뷰티 · 생활용품</text>
</svg>

