<svg xmlns="http://www.w3.org/2000/svg" width="512" height="512" viewBox="0 0 512 512">
  <defs>
    <linearGradient id="bg" x1="0" y1="0" x2="1" y2="1">
      <stop offset="0" stop-color="#0f172a"/>
      <stop offset="0.55" stop-color="#1e40af"/>
      <stop offset="1" stop-color="#2563eb"/>
    </linearGradient>
    <linearGradient id="accent" x1="0" y1="0" x2="1" y2="1">
      <stop offset="0" stop-color="#38bdf8"/>
      <stop offset="1" stop-color="#a78bfa"/>
    </linearGradient>
    <filter id="shadow" x="-20%" y="-20%" width="140%" height="140%">
      <feDropShadow dx="0" dy="12" stdDeviation="14" flood-color="#000000" flood-opacity="0.35"/>
    </filter>
  </defs>

  <rect width="512" height="512" rx="128" fill="url(#bg)"/>

  <!-- Globe -->
  <g filter="url(#shadow)">
    <circle cx="256" cy="238" r="134" fill="rgba(255,255,255,0.10)" stroke="rgba(255,255,255,0.22)" stroke-width="2"/>
    <path d="M122 238h268" stroke="rgba(255,255,255,0.35)" stroke-width="3" stroke-linecap="round"/>
    <path d="M256 104c-46 50-72 100-72 134s26 84 72 134" stroke="rgba(255,255,255,0.28)" stroke-width="3" fill="none" stroke-linecap="round"/>
    <path d="M256 104c46 50 72 100 72 134s-26 84-72 134" stroke="rgba(255,255,255,0.28)" stroke-width="3" fill="none" stroke-linecap="round"/>
    <path d="M168 160c26 16 56 24 88 24s62-8 88-24" stroke="rgba(255,255,255,0.22)" stroke-width="3" fill="none" stroke-linecap="round"/>
    <path d="M168 316c26-16 56-24 88-24s62 8 88 24" stroke="rgba(255,255,255,0.22)" stroke-width="3" fill="none" stroke-linecap="round"/>
  </g>

  <!-- Trade arrows -->
  <g filter="url(#shadow)">
    <path d="M144 352c36 42 78 64 126 64s90-22 126-64" fill="none" stroke="rgba(255,255,255,0.82)" stroke-width="10" stroke-linecap="round"/>
    <path d="M380 340l20 22-28 6" fill="none" stroke="rgba(255,255,255,0.82)" stroke-width="10" stroke-linecap="round" stroke-linejoin="round"/>

    <path d="M368 128c-36-34-76-50-112-50s-76 16-112 50" fill="none" stroke="url(#accent)" stroke-width="10" stroke-linecap="round"/>
    <path d="M132 140l-20-22 28-6" fill="none" stroke="url(#accent)" stroke-width="10" stroke-linecap="round" stroke-linejoin="round"/>
  </g>

  <!-- Subtle container block -->
  <g transform="translate(156 356)" opacity="0.85">
    <rect x="0" y="0" width="200" height="70" rx="18" fill="rgba(255,255,255,0.12)" stroke="rgba(255,255,255,0.18)"/>
    <path d="M24 16v38M56 16v38M88 16v38M112 16v38M144 16v38M176 16v38" stroke="rgba(255,255,255,0.18)" stroke-width="3" stroke-linecap="round"/>
  </g>
</svg>

